<svg width="32" height="32" viewBox="0 0 32 32" fill="none" xmlns="http://www.w3.org/2000/svg">
  <defs>
    <linearGradient id="heartGradient" x1="0%" y1="0%" x2="100%" y2="100%">
      <stop offset="0%" style="stop-color:#FF6B9D;stop-opacity:1" />
      <stop offset="100%" style="stop-color:#C44569;stop-opacity:1" />
    </linearGradient>
    <filter id="glow">
      <feGaussianBlur stdDeviation="2" result="coloredBlur"/>
      <feMerge> 
        <feMergeNode in="coloredBlur"/>
        <feMergeNode in="SourceGraphic"/>
      </feMerge>
    </filter>
  </defs>
  
  <!-- Heart Shape -->
  <path d="M16 28C16 28 4 18 4 12C4 8 7 5 11 5C13 5 15 6 16 7C17 6 19 5 21 5C25 5 28 8 28 12C28 18 16 28 16 28Z" 
        fill="url(#heartGradient)" 
        stroke="#FF6B9D" 
        stroke-width="1" 
        filter="url(#glow)"/>
  
  <!-- Lock Icon Inside Heart -->
  <rect x="13" y="12" width="6" height="4" rx="1" fill="#FFFFFF" opacity="0.9"/>
  <path d="M14.5 12V10.5C14.5 9.5 15.2 8.5 16 8.5S17.5 9.5 17.5 10.5V12" 
        stroke="#FFFFFF" 
        stroke-width="1" 
        fill="none" 
        stroke-linecap="round"/>
  
  <!-- Privacy Dots -->
  <circle cx="8" cy="8" r="1" fill="#FF6B9D" opacity="0.7"/>
  <circle cx="24" cy="8" r="1" fill="#FF6B9D" opacity="0.7"/>
  <circle cx="8" cy="24" r="1" fill="#FF6B9D" opacity="0.7"/>
  <circle cx="24" cy="24" r="1" fill="#FF6B9D" opacity="0.7"/>
</svg>
